# AST/ASF file generated using VICON BodyLanguage
# -----------------------------------------------
:version 1.10
:name VICON
:units
  mass 1.0
  length 0.45
  angle deg
:documentation
   .ast/.asf automatically generated from VICON data using
   VICON BodyBuilder and BodyLanguage model FoxedUp or BRILLIANT.MOD
:root
   order TX TY TZ RX RY RZ
   axis XYZ
   position 0 0 0  
   orientation 0 0 0 
:bonedata
  begin
     id 1 
     name lhipjoint
     direction 0.682418 -0.694059 0.22932 
     length 2.25561 
     axis 0 0 0  XYZ
  end
  begin
     id 2 
     name lfemur
     direction 0.34202 -0.939693 0  
     length 6.96448  
     axis 0 0 20  XYZ
    dof rx ry rz
    limits (-160.0 20.0)
           (-70.0 70.0)
           (-60.0 70.0)
  end
  begin
     id 3 
     name ltibia
     direction 0.34202 -0.939693 0   
     length 6.88553   
     axis 0 0 20   XYZ
    dof rx
    limits (-10.0 170.0)
  end
  begin
     id 4 
     name lfoot
     direction 0.0723587 -0.198804 0.977364   
     length 1.88518   
     axis -90 7.62852e-016 20   XYZ
    dof rx rz
    limits (-45.0 90.0)
           (-70.0 20.0)
  end
  begin
     id 5 
     name ltoes
     direction 1.53558e-011 -4.21962e-011 1   
     length 0.952124   
     axis -90 7.62852e-016 20   XYZ
    dof rx
    limits (-90.0 20.0)
  end
  begin
     id 6 
     name rhipjoint
     direction -0.657603 -0.71533 0.236348   
     length 2.18854  
     axis 0 0 0  XYZ 
  end
  begin
     id 7 
     name rfemur
     direction -0.34202 -0.939693 0   
     length 6.86686   
     axis 0 0 -20   XYZ
    dof rx ry rz
    limits (-160.0 20.0)
           (-70.0 70.0)
           (-70.0 60.0)
  end
  begin
     id 8 
     name rtibia
     direction -0.34202 -0.939693 0   
     length 6.59503   
     axis 0 0 -20   XYZ
    dof rx
    limits (-10.0 170.0)
 end
 begin
     id 9 
     name rfoot
     direction -0.101977 -0.280179 0.954516   
     length 1.93723  
     axis -90 -7.62852e-016 -20   XYZ
    dof rx rz
    limits (-45.0 90.0)
           (-20.0 70.0)
  end
  begin
     id 10 
     name rtoes
     direction -1.53564e-011 -4.21897e-011 1   
     length 0.970315   
     axis -90 -7.62852e-016 -20   XYZ
    dof rx
    limits (-90.0 20.0)
  end
  begin
     id 11 
     name lowerback
     direction -0.0339559 0.999421 -0.00235966   
     length 1.88543   
     axis 0 0 0   XYZ
    dof rx ry rz
    limits (-20.0 45.0)
           (-30.0 30.0)
           (-30.0 30.0)
  end
  begin
     id 12 
     name upperback
     direction 0.00401003 0.999739 0.0224689   
     length 1.8856   
     axis 0 0 0   XYZ
    dof rx ry rz
    limits (-20.0 45.0)
           (-30.0 30.0)
           (-30.0 30.0)
  end
  begin
     id 13 
     name thorax
     direction 0.0198619 0.999546 0.0226536   
     length 1.88352   
     axis 0 0 0   XYZ
    dof rx ry rz
    limits (-20.0 45.0)
           (-30.0 30.0)
           (-30.0 30.0)
  end
  begin
     id 14 
     name lowerneck
     direction -0.0461848 0.998632 0.0245198   
     length 1.34895   
     axis 0 0 0   XYZ
    dof rx ry rz
    limits (-20.0 45.0)
           (-30.0 30.0)
           (-30.0 30.0)
  end
  begin
     id 15 
     name upperneck
     direction -0.0180627 0.994724 -0.100984   
     length 1.35214   
     axis 0 0 0   XYZ
    dof rx ry rz
    limits (-20.0 45.0)
           (-30.0 30.0)
           (-30.0 30.0)
  end
  begin
     id 16
     name head
     direction -0.00374772 0.999293 -0.037403  
     length 1.3568  
     axis 0 0 0   XYZ
    dof rx ry rz
    limits (-20.0 45.0)
           (-30.0 30.0)
           (-30.0 30.0)
  end
  begin
     id 17 
     name lclavicle
     direction 0.971773 0.191119 0.138311  
     length 2.84954  
     axis 0 0 0   XYZ
    dof ry rz
    limits (-20.0 10.0)
           (0.0 20.0)
  end
  begin
     id 18 
     name lhumerus
     direction 1 -4.4897e-011 -2.43761e-027   
     length 4.40919   
     axis 180 -30 -90   XYZ
    dof rx ry rz
    limits (-60.0 90.0)
           (-90.0 90.0)
           (-90.0 90.0)
  end
  begin
     id 19
     name lradius
     direction 1 -4.4896e-011 -9.1621e-027   
     length 3.03857   
     axis 180 -30 -90   XYZ
    dof rx
    limits (-10.0 170.0)
  end
  begin
     id 20
     name lwrist
     direction 1 -4.4896e-011 -1.41363e-026   
     length 1.51928   
     axis 1.07133e-014 90 90   XYZ
    dof ry
    limits (-180.0 0.0)
 end
  begin
     id 21 
     name lhand
     direction 1 -4.48978e-011 -2.82725e-026   
     length 0.523208   
     axis 1.80403e-014 90 90   XYZ
    dof rx rz
    limits (-90.0 90.0)
           (-45.0 45.0)
  end
  begin
     id 22 
     name lfingers
     direction 1 -4.48977e-011 -5.6545e-026   
     length 0.421824   
     axis 3.60806e-014 90 90   XYZ
    dof rx
    limits (0.0 90.0)
  end
  begin
     id 23
     name lthumb
     direction 0.707107 -6.34962e-011 0.707107   
     length 0.605657   
     axis -90 45 2.85299e-015   XYZ
    dof rx rz
    limits (-45.0 45.0)
           (-45.0 45.0)
  end
  begin
     id 24 
     name rclavicle
     direction -0.957247 0.24311 0.156766   
     length 3.12406  
     axis 0 0 0   XYZ 
    dof ry rz
    limits (-10.0 20.0)
           (-20.0 0.0)
  end
  begin
     id 25 
     name rhumerus
     direction -1 -4.48964e-011 -1.70632e-027  
     length 4.61969   
     axis 180 30 90   XYZ
    dof rx ry rz
    limits (-90.0 60.0)
           (-90.0 90.0)
           (-90.0 90.0)
  end
  begin
     id 26 
     name rradius
     direction -1 -4.48966e-011 -6.60395e-027   
     length 3.09382   
     axis 180 30 90   XYZ
    dof rx
    limits (-10.0 170.0)
  end
  begin
     id 27 
     name rwrist
     direction -1 -4.48963e-011 -1.41363e-026   
     length 1.54691   
     axis 1.07133e-014 -90 -90   XYZ
    dof ry
    limits (-180.0 0.0)
  end
  begin
     id 28
     name rhand
     direction -1 -4.49013e-011 -2.82725e-026   
     length 0.500896   
     axis 1.80403e-014 -90 -90   XYZ
    dof rx rz
    limits (-90.0 90.0)
           (-45.0 45.0)
  end
  begin
     id 29
     name rfingers
     direction -1 -4.48902e-011 -5.6545e-026   
     length 0.403835   
     axis 3.60806e-014 -90 -90   XYZ
    dof rx
    limits (0.0 90.0)
  end
  begin
     id 30
     name rthumb
     direction -0.707107 -6.34953e-011 0.707107   
     length 0.579829   
     axis -90 -45 -2.85299e-015   XYZ
    dof rx rz
    limits (-45.0 45.0)
           (-45.0 45.0)
  end
:hierarchy
  begin
    root lhipjoint rhipjoint lowerback
    lhipjoint lfemur
    lfemur ltibia
    ltibia lfoot
    lfoot ltoes
    rhipjoint rfemur
    rfemur rtibia
    rtibia rfoot
    rfoot rtoes
    lowerback upperback
    upperback thorax
    thorax lowerneck lclavicle rclavicle
    lowerneck upperneck
    upperneck head
    lclavicle lhumerus
    lhumerus lradius
    lradius lwrist
    lwrist lhand lthumb
    lhand lfingers
    rclavicle rhumerus
    rhumerus rradius
    rradius rwrist
    rwrist rhand rthumb
    rhand rfingers
  end

#!OML:ASF E:\madness\Project 1\Capture day 1\Session 1\Female1.ASF
:FULLY-SPECIFIED
:DEGREES
237
root 6.44334 15.281 1.6907 30.3836 -83.0256 -25.5556
lowerback 10.1155 -4.82737 -7.07936
upperback 2.84998 -7.1345 4.06878
thorax -1.25029 -3.68634 8.996
lowerneck -3.26711 -6.14503 -3.31
upperneck 26.1573 -10.5625 4.49801
head 9.14633 -5.23127 1.09222
rclavicle -3.6154e-014 2.80286e-014
rhumerus 33.6408 -54.0225 -15.3002
rradius 133.261
rwrist -23.857
rhand -4.03985 -48.4789
rfingers 7.12502
rthumb 21.7157 -77.2808
lclavicle -3.6154e-014 2.80286e-014
lhumerus 49.3339 16.4884 64.1137
lradius 139.701
lwrist -8.10082
lhand -23.2733 -20.194
lfingers 7.12502
lthumb 3.1792 9.76201
rfemur -36.5896 18.968 0.59149
rtibia 29.7118
rfoot 1.26604 -18.5166
rtoes -2.38129
lfemur -26.0968 2.96112 -21.4111
ltibia 52.4168
lfoot -25.937 12.8744
ltoes 6.32988
238
root 6.46801 15.2848 1.72139 31.0846 -82.6572 -26.3443
lowerback 10.2422 -5.03782 -6.69872
upperback 2.79185 -7.38465 4.37698
thorax -1.33679 -3.81122 9.14839
lowerneck -3.10091 -6.17284 -3.51885
upperneck 26.1544 -10.5193 4.225
head 9.10801 -5.26139 1.04562
rclavicle 4.08813e-014 -1.01504e-014
rhumerus 35.6617 -54.4724 -16.457
rradius 133.444
rwrist -23.7032
rhand -4.94688 -48.468
rfingers 7.12502
rthumb 20.8444 -77.3683
lclavicle 4.08813e-014 -1.01504e-014
lhumerus 49.8718 16.0091 65.088
lradius 140.236
lwrist -8.15668
lhand -25.1816 -20.5056
lfingers 7.12502
lthumb 1.33622 9.46994
rfemur -36.5794 18.6058 0.743141
rtibia 30.8467
rfoot 1.07075 -17.6987
rtoes -2.93075
lfemur -26.1938 2.51562 -21.2842
ltibia 52.487
lfoot -25.8336 12.9152
ltoes 6.9473
239
root 6.49125 15.2913 1.75178 31.1384 -82.4202 -26.5345
lowerback 10.3344 -5.1148 -6.28591
upperback 2.83538 -7.45329 4.56913
thorax -1.35513 -3.85066 9.13485
lowerneck -3.0266 -6.32563 -3.53797
upperneck 25.9675 -10.6531 4.01503
head 9.02368 -5.34363 0.972247
rclavicle 5.1448e-014 -1.37161e-014
rhumerus 37.2768 -54.9047 -17.4314
rradius 133.615
rwrist -23.1439
rhand -5.7818 -48.2666
rfingers 7.12502
rthumb 20.0421 -77.2529
lclavicle 5.1448e-014 -1.37161e-014
lhumerus 50.3944 15.3333 65.967
lradius 140.724
lwrist -7.83607
lhand -26.8894 -21.2456
lfingers 7.12502
lthumb -0.313246 8.73393
rfemur -36.5912 18.2902 0.752754
rtibia 32.1935
rfoot 0.981118 -16.7656
rtoes -3.56313
lfemur -26.168 2.21288 -21.2843
ltibia 52.5291
lfoot -25.7931 12.9126
ltoes 7.62451
240
root 6.51657 15.2955 1.77932 31.9631 -82.1511 -27.3636
lowerback 10.1886 -5.09438 -5.61039
upperback 2.94093 -7.35624 4.70041
thorax -1.25427 -3.81157 8.86174
lowerneck -3.31753 -6.58011 -3.11154
upperneck 26.0543 -10.8981 3.41886
head 9.0591 -5.45978 0.667144
rclavicle -1.69712e-014 -1.91827e-014
rhumerus 38.7313 -55.3767 -18.4986
rradius 133.868
rwrist -22.4092
rhand -5.91462 -48.479
rfingers 7.12502
rthumb 19.9144 -77.4787
lclavicle -1.69712e-014 -1.91827e-014
lhumerus 50.9746 14.3498 66.6117
lradius 141.11
lwrist -7.30805
lhand -28.9633 -22.1601
lfingers 7.12502
lthumb -2.31628 7.80705
rfemur -36.8385 17.9619 0.783488
rtibia 33.772
rfoot 1.25716 -15.7586
rtoes -4.51279
lfemur -26.3482 2.02242 -21.1656
ltibia 52.5526
lfoot -25.6635 12.7229
ltoes 8.07783
241
root 6.54255 15.3002 1.80643 32.8773 -81.8381 -28.2067
lowerback 10.0007 -5.11153 -4.93174
upperback 3.03251 -7.31131 4.86363
thorax -1.12967 -3.79882 8.62083
lowerneck -3.79995 -6.83288 -2.66193
upperneck 26.2893 -11.1445 2.76805
head 9.17407 -5.57523 0.327772
rclavicle 7.16619e-014 -2.80286e-014
rhumerus 40.3792 -55.8015 -19.7698
rradius 134.075
rwrist -21.481
rhand -6.4231 -48.6506
rfingers 7.12502
rthumb 19.4256 -77.7003
lclavicle 7.16619e-014 -2.80286e-014
lhumerus 51.5004 13.2705 67.4163
lradius 141.277
lwrist -7.07367
lhand -31.6597 -23.3317
lfingers 7.12502
lthumb -4.92013 6.59118
rfemur -37.1933 17.6081 0.808379
rtibia 35.5915
rfoot 1.35743 -14.9512
rtoes -4.21426
lfemur -26.6365 1.86184 -20.9952
ltibia 52.5537
lfoot -25.4529 12.4388
ltoes 8.34526
242
root 6.56573 15.3032 1.83503 32.7572 -81.6093 -28.0737
lowerback 9.98863 -5.17833 -4.52789
upperback 3.02025 -7.36462 5.11941
thorax -1.1431 -3.82946 8.67076
lowerneck -4.64081 -7.06898 -2.56007
upperneck 26.9921 -11.3837 2.13022
head 9.54199 -5.71154 0.0163534
rclavicle 9.75536e-014 -3.49861e-014
rhumerus 42.5711 -56.1073 -21.3525
rradius 134.253
rwrist -20.9769
rhand -7.2236 -48.6622
rfingers 7.12502
rthumb 18.6558 -77.7876
lclavicle 9.75536e-014 -3.49861e-014
lhumerus 51.9811 13.2914 66.8939
lradius 142.548
lwrist -6.76599
lhand -34.4037 -22.3568
lfingers 7.12502
lthumb -7.56928 7.48773
rfemur -37.4833 17.1677 0.703817
rtibia 37.6059
rfoot 1.3172 -14.2004
rtoes -2.98867
lfemur -26.7464 1.71905 -21.0055
ltibia 52.5276
lfoot -25.2856 12.4093
ltoes 7.85029
243
root 6.58675 15.304 1.86373 32.4798 -81.5754 -27.8225
lowerback 9.98653 -5.24108 -4.38086
upperback 2.92887 -7.43683 5.47391
thorax -1.19372 -3.8698 8.98139
lowerneck -5.0685 -7.10341 -2.02909
upperneck 27.5159 -11.2596 0.988017
head 9.69897 -5.70884 -0.47555
rclavicle 1.40143e-014 -3.73715e-014
rhumerus 45.5136 -56.3002 -23.5203
rradius 134.524
rwrist -21.69
rhand -7.86686 -48.7391
rfingers 7.12502
rthumb 18.0369 -77.9227
lclavicle 1.40143e-014 -3.73715e-014
lhumerus 51.149 12.7125 67.2802
lradius 142.8
lwrist -7.5693
lhand -37.2584 -23.6796
lfingers 7.12502
lthumb -10.3239 6.04699
rfemur -37.7993 16.7358 0.480932
rtibia 39.7667
rfoot 1.51714 -13.3532
rtoes -2.22214
lfemur -26.7338 1.68912 -21.1612
ltibia 52.4436
lfoot -25.0196 12.7334
ltoes 6.45174
244
root 6.61076 15.3091 1.89411 33.0592 -81.6089 -28.4652
lowerback 9.72232 -5.23399 -4.15978
upperback 3.08596 -7.42012 5.82976
thorax -0.865187 -3.89262 9.19515
lowerneck -4.5902 -7.00488 -2.95135
upperneck 27.057 -11.0023 1.19629
head 9.50835 -5.66354 -0.19489
rclavicle 1.01579e-013 -3.93594e-014
rhumerus 48.4281 -56.6523 -25.7601
rradius 135.281
rwrist -22.6382
rhand -8.20878 -50.7253
rfingers 7.12502
rthumb 17.7079 -79.939
lclavicle 1.01579e-013 -3.93594e-014
lhumerus 51.2472 11.5789 67.0508
lradius 142.97
lwrist -9.19403
lhand -39.9899 -24.2281
lfingers 7.12502
lthumb -12.958 5.34956
rfemur -38.125 16.3333 0.326763
rtibia 42.0393
rfoot 1.99034 -12.5196
rtoes -3.33075
lfemur -26.6949 1.80186 -21.2381
ltibia 52.2958
lfoot -24.6873 12.966
ltoes 5.72715
245
root 6.6425 15.3217 1.93455 33.0296 -81.6528 -28.5115
lowerback 9.4474 -5.15868 -3.73916
upperback 3.34513 -7.30098 6.04037
thorax -0.489563 -3.86265 9.12409
lowerneck -4.01709 -7.11034 -2.85602
upperneck 26.1453 -10.9451 0.729699
head 9.04119 -5.67545 -0.302483
rclavicle 3.37934e-015 2.22639e-014
rhumerus 50.6392 -56.8772 -27.5011
rradius 135.337
rwrist -21.9309
rhand -9.08516 -50.3393
rfingers 7.12502
rthumb 16.8645 -79.627
lclavicle 3.37934e-015 2.22639e-014
lhumerus 52.0406 11.2989 66.7525
lradius 143.55
lwrist -9.37785
lhand -41.9905 -25.6111
lfingers 7.12502
lthumb -14.886 3.8341
rfemur -38.3736 15.7777 0.0388466
rtibia 44.394
rfoot 2.62703 -11.582
rtoes -4.80036
lfemur -26.6321 1.88174 -21.4497
ltibia 52.0699
lfoot -24.3957 12.9293
ltoes 6.10723
246
root 6.66332 15.3398 1.96608 33.0458 -81.7433 -28.6059
lowerback 9.47084 -5.0744 -3.38448
upperback 3.41957 -7.16962 6.24498
thorax -0.465282 -3.80447 9.13408
lowerneck -4.60551 -7.27169 -3.06214
upperneck 26.4709 -11.0675 0.416217
head 9.26117 -5.76531 -0.424596
rclavicle -9.93923e-016 -1.27222e-014
rhumerus 52.8122 -56.6765 -29.3432
rradius 135.157
rwrist -20.9113
rhand -10.3507 -48.9797
rfingers 7.12502
rthumb 15.6459 -78.367
lclavicle -9.93923e-016 -1.27222e-014
lhumerus 52.4911 10.995 66.5218
lradius 144.145
lwrist -8.94517
lhand -43.2383 -28.4864
lfingers 7.12502
lthumb -16.0878 0.865809
rfemur -38.6151 15.5153 -0.33147
rtibia 46.8202
rfoot 3.24904 -10.8521
rtoes -4.1876
lfemur -26.5518 2.01249 -21.6244
ltibia 51.781
lfoot -24.184 12.6288
ltoes 6.78076
